<svg width="26" height="26" viewBox="0 0 26 26" fill="none" xmlns="http://www.w3.org/2000/svg">
    <path fill-rule="evenodd" clip-rule="evenodd" d="M10.3079 0.416086C9.67677 0.880814 9.48285 0.930394 8.23912 0.948903C7.13495 0.9651 6.92081 0.933369 6.6838 0.719184C6.57872 0.624652 0.782053 0.596887 0.536424 0.689767C0.399189 0.741991 0.383941 0.793223 0.250684 1.63905C0.233116 1.74978 0.259966 2.03503 0.31002 2.27268C0.411786 2.75658 0.417753 3.12843 0.336207 3.95608C0.305379 4.26745 0.266927 4.68359 0.250353 4.88058C0.23411 5.07758 0.203282 5.39985 0.182399 5.59685C0.132676 6.06653 0.128698 7.71919 0.176764 7.96544C0.221514 8.19317 0.232121 8.2368 0.394549 8.84697C0.519187 9.31566 0.548689 9.97805 0.495983 11.1333C0.478083 11.5329 0.528468 11.6753 0.891775 12.2478C1.16691 12.6818 0.981276 13.212 0.41709 13.6033L0.270905 13.7048L0.309357 14.9255C0.352782 16.2932 0.353113 16.2952 0.677967 16.6806L0.912658 16.9586L0.896084 17.7918C0.87288 18.9692 0.812218 19.4607 0.667691 19.6378C0.291457 20.0989 0.263281 20.3716 0.353445 22.6741C0.383941 23.4555 0.380295 23.9407 0.342837 24.0997C0.24969 24.4947 0.373334 24.6395 0.89078 24.7419C1.61242 24.885 2.19517 24.8966 3.4263 24.7925C3.56321 24.7809 3.84894 24.7568 4.06176 24.7386C4.57655 24.695 5.08207 24.6993 5.46261 24.7505C5.80371 24.7961 6.97948 24.8064 7.76344 24.77C9.16993 24.7049 10.2071 24.9756 10.8393 25.5729C11.1857 25.9001 11.2311 25.917 11.3604 25.7649C11.791 25.2585 11.9378 25.2166 12.5421 25.4288C12.7092 25.4873 12.9608 25.5362 13.101 25.5372C13.275 25.5382 13.4033 25.5759 13.5047 25.6555C13.6589 25.7765 13.9662 25.7735 14.1883 25.6492C14.6431 25.3941 14.9503 25.3547 16.7964 25.3157C17.7839 25.2946 18.6626 25.2612 18.7495 25.2407C19.6011 25.0424 19.6223 25.0397 19.9345 25.0946C20.6317 25.2172 20.7934 25.2364 21.7902 25.3164C22.8132 25.3984 23.0415 25.3194 23.0903 24.8659C23.1052 24.7277 24.0098 24.6398 24.448 24.7337C24.8017 24.8094 24.928 24.845 25.29 24.9723C25.9162 25.1918 25.8555 25.7246 25.8555 19.9872C25.8555 14.5344 25.8774 14.855 25.5048 14.8461C25.0195 14.8346 24.82 14.6699 25.1272 14.5348C25.4206 14.4055 25.47 14.1923 25.47 13.0536C25.47 11.8257 25.4146 11.557 25.0182 10.8668C24.6913 10.2977 24.6844 10.1079 24.9781 9.80584C25.1223 9.6571 25.1461 9.5986 25.1143 9.47035C25.0212 9.09817 25.0397 9.04793 25.3255 8.90184C25.8065 8.65526 25.7581 9.40358 25.7226 2.76914L25.7143 1.23614L25.523 1.06756C25.1611 0.748271 24.9098 0.672909 24.0612 0.630932C23.6359 0.609778 23.1635 0.576394 23.0117 0.556562C22.7203 0.518881 22.6003 0.585318 22.3779 0.906926C22.2662 1.06856 22.2264 1.05567 22.1144 0.82264C21.9102 0.398568 22.0047 0.41212 18.3066 0.275279L17.3032 0.23826L17.1693 0.372125C17.0921 0.449139 17.0195 0.603828 16.9979 0.736702C16.9482 1.04773 16.8193 1.11814 16.2136 1.16408L15.7141 1.20209L15.5573 0.997161C15.3743 0.758187 15.1267 0.640187 14.7952 0.634898C14.412 0.628618 14.351 0.586971 14.4491 0.397907C14.4942 0.311307 14.531 0.218428 14.531 0.191655C14.531 0.164221 13.6864 0.143066 12.6051 0.143066H10.6788L10.3079 0.416086ZM5.44802 4.65681C5.62769 4.77613 5.98006 5.02403 6.23099 5.20781C6.48225 5.39125 6.7017 5.54165 6.71893 5.54165C6.73617 5.54165 7.02058 5.75286 7.35041 6.011C7.68057 6.26948 8.30641 6.69421 8.74099 6.955C9.71853 7.54236 11.2928 8.56734 11.3176 8.63278C11.3276 8.65989 11.3614 8.6817 11.3925 8.6817C11.4237 8.6817 11.5397 8.7521 11.6504 8.83804C11.7611 8.92398 12.2372 9.25385 12.7079 9.57149C13.1789 9.8888 13.875 10.3598 14.2549 10.6176C15.0455 11.1544 16.5471 12.1668 18.1498 13.244C18.7574 13.6522 19.4536 14.1285 19.6969 14.3024C19.9398 14.4763 20.3794 14.7328 20.6738 14.8726C20.9681 15.0124 21.3211 15.2196 21.458 15.3333C21.5953 15.447 21.8625 15.6516 22.0521 15.7881C22.2417 15.9246 22.5072 16.1408 22.6421 16.2691L22.8874 16.5021L22.8552 16.8201C22.8145 17.2203 22.7439 17.5849 22.594 18.167C22.5294 18.4188 22.4681 18.6664 22.4581 18.7167C22.4479 18.7669 22.3282 19.1635 22.1916 19.5979C22.055 20.0325 21.9261 20.45 21.9049 20.5257C21.8157 20.8436 21.53 21.1378 21.1332 21.3199C20.7719 21.4855 18.7853 21.583 18.7853 21.4349C18.7853 21.3893 18.8101 21.352 18.8403 21.352C18.8708 21.352 18.8957 21.3285 18.8957 21.2998C18.8957 21.2697 18.7919 21.2783 18.652 21.3203L18.4087 21.3933L18.1134 21.0919C17.9513 20.9259 17.5077 20.5263 17.1279 20.2037C16.0164 19.2597 15.5851 18.7851 14.6417 17.4696C14.4747 17.2365 14.0394 16.7563 13.6748 16.4019C13.0039 15.7505 11.1847 13.9008 10.2217 12.8917C9.933 12.5889 9.24849 11.8713 8.70021 11.2965C8.15227 10.7217 7.31925 9.84253 6.84954 9.34276C6.37983 8.843 5.65852 8.08674 5.24681 7.66267C4.83511 7.23827 4.20927 6.59373 3.85624 6.23014C3.18001 5.53404 2.78621 5.05973 2.83991 5.00618C2.85748 4.98867 3.25161 4.85579 3.71536 4.71069C4.80494 4.37057 5.00814 4.36396 5.44802 4.65681ZM19.5808 4.62839C19.8619 4.71267 20.6641 5.2207 20.8766 5.44877C21.1189 5.7089 21.0318 6.75338 20.5793 9.02248C20.5199 9.32029 20.3764 9.39862 20.0893 9.28988C19.9521 9.23799 18.5738 8.27614 18.3666 8.08773C18.3079 8.03452 18.1946 7.94197 18.1147 7.88214C17.0675 7.09713 15.305 5.6775 15.3206 5.63122C15.3524 5.53636 15.8072 5.38233 16.9068 5.09477C17.469 4.94768 18.1402 4.76721 18.3984 4.69383C18.9504 4.5365 19.2245 4.52129 19.5808 4.62839ZM5.81398 16.3771C6.30889 16.8525 7.13627 17.6543 7.65272 18.1587C8.16951 18.6634 8.69458 19.1487 8.82021 19.2372C9.27534 19.5585 10.117 20.3776 10.1001 20.4827C10.0845 20.5785 9.46694 20.8291 8.55337 21.1097C8.4105 21.1537 8.21757 21.2532 8.12509 21.3308C8.03261 21.4082 7.88841 21.4816 7.80488 21.4935C5.39399 21.8352 5.45664 21.8441 4.51423 21.0201C4.23512 20.7759 3.85325 20.4718 3.66597 20.3445C3.21382 20.0365 2.9725 19.54 3.20553 19.3966C3.2357 19.3777 3.26056 19.3248 3.26056 19.2789C3.26056 19.2329 3.34542 18.9926 3.44884 18.7451C3.55227 18.4972 3.7548 18.0096 3.899 17.6613C4.04319 17.3126 4.22916 16.8789 4.31236 16.6971C4.39523 16.5153 4.54705 16.1745 4.64948 15.9399C4.75158 15.7048 4.85301 15.5128 4.87489 15.5128C4.89677 15.5128 5.31941 15.9015 5.81398 16.3771Z" fill="url(#paint0_linear_3235_17118)"/>
    <defs>
        <linearGradient id="paint0_linear_3235_17118" x1="25.8571" y1="0.143067" x2="0.142821" y2="25.8574" gradientUnits="userSpaceOnUse">
            <stop stop-color="#BC2C1C"/>
            <stop offset="1" stop-color="#FF1900"/>
        </linearGradient>
    </defs>
</svg>
