<svg width="26" height="26" viewBox="0 0 26 26" fill="none" xmlns="http://www.w3.org/2000/svg">
    <path d="M0.142822 0.143066H25.8571V25.8574H0.142822V0.143066Z" fill="#C5412B"/>
    <path d="M3.60285 15.9595L3.57642 10.7153C3.57642 10.7153 6.43973 11.7122 8.39597 11.7452L8.42763 15.1062C8.42763 15.1062 6.12517 15.1054 3.66502 15.9993" fill="#23252A"/>
    <path d="M9.40527 11.7144L10.9823 11.6836L11.0138 15.1062H9.46835L9.40527 11.7144Z" fill="#23252A"/>
    <path d="M13.5371 12.3774L12.5188 13.4393L13.6027 14.5135L14.6061 13.4021L13.5371 12.3774Z" fill="#23252A"/>
    <path d="M11.9915 9.19948L15.3787 9.18408L15.4102 10.7855H12.0387L11.9915 9.19948Z" fill="#23252A"/>
    <path d="M16.4029 13.896L13.9924 16.2365L15.174 17.3606L17.4427 15.1063L16.4029 13.896Z" fill="#23252A"/>
    <path d="M11.0119 3.4189L16.3775 3.39307C16.3775 3.39307 15.3102 6.33018 15.2765 8.24216L12.011 8.25771C12.011 8.25771 11.8858 5.88416 10.9712 3.47966" fill="#23252A"/>
    <path d="M22.5124 18.4426L18.7473 22.179C18.7473 22.179 17.3693 19.3682 16.0061 17.9965L18.2976 15.7227C18.2976 15.7227 20.1078 17.3097 22.497 18.3716" fill="#23252A"/>
</svg>
